<?xml version="1.0" standalone="no"?>
<!DOCTYPE svg PUBLIC "-//W3C//DTD SVG 20010904//EN"
 "http://www.w3.org/TR/2001/REC-SVG-20010904/DTD/svg10.dtd">
<svg version="1.0" xmlns="http://www.w3.org/2000/svg"
 width="512.000000pt" height="512.000000pt" viewBox="0 0 512.000000 512.000000"
 preserveAspectRatio="xMidYMid meet">

<g transform="translate(0.000000,512.000000) scale(0.100000,-0.100000)"
fill="#000000" stroke="none">
<path d="M3963 3976 c-104 -34 -189 -110 -240 -215 -25 -50 -27 -67 -28 -161
0 -97 2 -110 32 -172 40 -85 106 -151 191 -191 62 -29 75 -32 167 -32 90 1
106 4 160 30 298 144 303 572 7 717 -56 28 -77 33 -156 35 -57 2 -107 -2 -133
-11z"/>
<path d="M2515 3959 c-334 -9 -376 -12 -413 -35 -33 -19 -62 -62 -62 -93 0
-21 1 -21 365 -21 237 0 365 -4 365 -10 0 -6 -129 -10 -366 -10 l-366 0 6 -32
c9 -47 51 -85 105 -97 25 -5 183 -15 351 -21 375 -13 380 -13 412 -48 32 -34
168 -220 168 -229 0 -4 -10 -17 -22 -30 l-21 -23 161 0 c101 0 162 -4 162 -10
0 -6 -64 -10 -172 -10 l-173 0 -218 -203 -218 -202 442 -5 c341 -4 443 -8 447
-17 3 -10 -94 -13 -461 -13 l-465 0 -171 -161 c-170 -159 -221 -224 -221 -279
0 -20 5 -20 390 -20 253 0 390 -4 390 -10 0 -6 -138 -10 -395 -10 l-395 0 -1
-22 c0 -17 -67 -78 -272 -248 l-271 -225 369 -3 c332 -2 370 -1 387 14 17 16
19 16 36 1 16 -14 44 -17 189 -17 94 0 178 -3 187 -6 44 -17 0 -24 -159 -26
l-175 -3 177 -207 178 -206 158 -4 c244 -5 202 -22 -68 -28 l-230 -5 -320 -94
c-176 -51 -336 -102 -356 -112 -49 -24 -97 -81 -105 -124 -26 -143 56 -244
198 -245 66 0 1195 230 1273 260 40 15 92 66 118 115 28 52 29 155 3 204 -10
19 -125 179 -255 355 -289 392 -301 409 -298 412 28 23 659 484 662 484 3 0
53 -96 111 -212 108 -218 129 -249 176 -274 58 -30 794 -12 858 21 69 36 95
114 62 188 -37 82 -52 86 -462 107 -263 13 -242 -2 -330 225 -137 351 -120
321 -324 570 -363 443 -559 667 -600 686 -46 21 -66 21 -541 8z"/>
<path d="M1630 3800 c0 -6 65 -10 175 -10 110 0 175 4 175 10 0 6 -65 10 -175
10 -110 0 -175 -4 -175 -10z"/>
<path d="M1337 3313 c-4 -3 -7 -10 -7 -15 0 -4 359 -7 798 -6 525 2 796 6 795
13 -3 11 -1575 20 -1586 8z"/>
<path d="M1113 2872 c-18 -2 -33 -7 -33 -13 0 -5 264 -9 680 -9 447 0 680 3
680 10 0 6 -15 10 -32 11 -170 2 -1271 3 -1295 1z"/>
<path d="M830 2375 c0 -13 74 -15 627 -13 490 2 627 6 631 16 3 9 -127 12
-627 12 -556 0 -631 -2 -631 -15z"/>
<path d="M510 1855 c0 -13 58 -15 465 -15 407 0 465 2 465 15 0 13 -58 15
-465 15 -407 0 -465 -2 -465 -15z"/>
<path d="M1302 1633 l-250 -208 339 -3 339 -2 263 196 c144 108 269 203 277
210 12 12 -41 14 -352 14 l-365 0 -251 -207z"/>
<path d="M240 1400 c0 -6 122 -10 345 -10 223 0 345 4 345 10 0 6 -122 10
-345 10 -223 0 -345 -4 -345 -10z"/>
<path d="M921 1317 c-51 -43 -94 -90 -108 -116 -79 -150 55 -320 220 -280 41
10 104 52 355 240 l306 229 -345 0 -344 -1 -84 -72z"/>
</g>
</svg>
